<?xml version="1.0" encoding="UTF-8"?>
<!--Generator: Apple Native CoreSVG 175.5-->
<!DOCTYPE svg
PUBLIC "-//W3C//DTD SVG 1.1//EN"
       "http://www.w3.org/Graphics/SVG/1.1/DTD/svg11.dtd">
<svg version="1.1" xmlns="http://www.w3.org/2000/svg" xmlns:xlink="http://www.w3.org/1999/xlink" width="38.7051" height="34.5303">
 <g>
  <rect height="34.5303" opacity="0" width="38.7051" x="0" y="0"/>
  <path d="M0 33.0459C0 33.8809 0.686523 34.5303 1.48438 34.5303L37.2021 34.5303C38.0186 34.5303 38.7051 33.8809 38.7051 33.0459C38.7051 32.2295 38.0186 31.5615 37.2021 31.5615L1.48438 31.5615C0.686523 31.5615 0 32.2295 0 33.0459Z" fill="#000" fill-opacity="0.85"/>
  <path d="M1.48438 27.3311C1.48438 28.2959 2.09668 28.8711 3.11719 28.8711L7.16211 28.8711C8.14551 28.8711 8.77637 28.2959 8.77637 27.3311L8.77637 11.9863C8.77637 11.04 8.14551 10.4277 7.16211 10.4277L3.11719 10.4277C2.09668 10.4277 1.48438 11.04 1.48438 11.9863Z" fill="#000" fill-opacity="0.85"/>
  <path d="M10.9473 27.3311C10.9473 28.2959 11.5781 28.8711 12.5801 28.8711L16.625 28.8711C17.627 28.8711 18.2578 28.2959 18.2578 27.3311L18.2578 3.95215C18.2578 2.9873 17.627 2.41211 16.625 2.41211L12.5801 2.41211C11.5781 2.41211 10.9473 2.9873 10.9473 3.95215Z" fill="#000" fill-opacity="0.85"/>
  <path d="M20.4287 27.3311C20.4287 28.2959 21.041 28.8711 22.043 28.8711L26.1064 28.8711C27.0898 28.8711 27.7207 28.2959 27.7207 27.3311L27.7207 7.95996C27.7207 6.97656 27.0898 6.40137 26.1064 6.40137L22.043 6.40137C21.041 6.40137 20.4287 6.97656 20.4287 7.95996Z" fill="#000" fill-opacity="0.85"/>
  <path d="M29.8916 27.3311C29.8916 28.2959 30.5039 28.8711 31.5244 28.8711L35.5693 28.8711C36.5713 28.8711 37.2021 28.2959 37.2021 27.3311L37.2021 15.8828C37.2021 14.918 36.5713 14.3242 35.5693 14.3242L31.5244 14.3242C30.5039 14.3242 29.8916 14.918 29.8916 15.8828Z" fill="#000" fill-opacity="0.85"/>
 </g>
</svg>
