<?xml version="1.0" encoding="UTF-8"?>
<!--Generator: Apple Native CoreSVG 175.5-->
<!DOCTYPE svg
PUBLIC "-//W3C//DTD SVG 1.1//EN"
       "http://www.w3.org/Graphics/SVG/1.1/DTD/svg11.dtd">
<svg version="1.1" xmlns="http://www.w3.org/2000/svg" xmlns:xlink="http://www.w3.org/1999/xlink" width="31.2275" height="33.9736">
 <g>
  <rect height="33.9736" opacity="0" width="31.2275" x="0" y="0"/>
  <path d="M3.17285 33.9736L28.0547 33.9736C30.04 33.9736 31.2275 33.0459 31.2275 31.5059C31.2275 26.7188 25.2344 20.1133 15.6045 20.1133C5.99316 20.1133 0 26.7188 0 31.5059C0 33.0459 1.1875 33.9736 3.17285 33.9736ZM15.623 16.792C19.5938 16.792 23.0449 13.2295 23.0449 8.59082C23.0449 4.00781 19.5938 0.612305 15.623 0.612305C11.6523 0.612305 8.20117 4.08203 8.20117 8.62793C8.20117 13.2295 11.6338 16.792 15.623 16.792Z" fill="#ffffff" fill-opacity="0.85"/>
 </g>
</svg>
