<?xml version="1.0" encoding="UTF-8"?>
<!--Generator: Apple Native CoreSVG 175.5-->
<!DOCTYPE svg
PUBLIC "-//W3C//DTD SVG 1.1//EN"
       "http://www.w3.org/Graphics/SVG/1.1/DTD/svg11.dtd">
<svg version="1.1" xmlns="http://www.w3.org/2000/svg" xmlns:xlink="http://www.w3.org/1999/xlink" width="46.1641" height="37.6104">
 <g>
  <rect height="37.6104" opacity="0" width="46.1641" x="0" y="0"/>
  <path d="M14.9922 6.06738L36.7939 6.06738L36.7939 5.75195C36.7939 1.92969 34.8271 0 30.9678 0L5.82617 0C1.92969 0 0 1.92969 0 5.75195L0 23.249C0 27.0898 1.92969 29.001 5.82617 29.001L6.62402 29.001L6.62402 14.3428C6.62402 9.11035 9.7041 6.06738 14.9922 6.06738Z" fill="#ffffff" fill-opacity="0.85"/>
  <path d="M14.9922 37.5918L40.3379 37.5918C44.1973 37.5918 46.1641 35.6621 46.1641 31.8398L46.1641 14.3428C46.1641 10.5205 44.1973 8.59082 40.3379 8.59082L14.9922 8.59082C11.0957 8.59082 9.16602 10.5205 9.16602 14.3428L9.16602 31.8398C9.16602 35.6807 11.0957 37.5918 14.9922 37.5918Z" fill="#ffffff" fill-opacity="0.85"/>
 </g>
</svg>
