<?xml version="1.0" encoding="UTF-8"?>
<!--Generator: Apple Native CoreSVG 175.5-->
<!DOCTYPE svg
PUBLIC "-//W3C//DTD SVG 1.1//EN"
       "http://www.w3.org/Graphics/SVG/1.1/DTD/svg11.dtd">
<svg version="1.1" xmlns="http://www.w3.org/2000/svg" xmlns:xlink="http://www.w3.org/1999/xlink" width="33.7695" height="33.7881">
 <g>
  <rect height="33.7881" opacity="0" width="33.7695" x="0" y="0"/>
  <path d="M31.5986 2.18945C29.7061 0.296875 27.0342 0 23.8613 0L9.85254 0C6.73535 0 4.06348 0.296875 2.1709 2.18945C0.27832 4.08203 0 6.73535 0 9.83398L0 23.8613C0 27.0342 0.27832 29.6689 2.1709 31.5615C4.06348 33.4541 6.73535 33.751 9.88965 33.751L23.8613 33.751C27.0342 33.751 29.7061 33.4541 31.5986 31.5615C33.4912 29.6689 33.7695 27.0342 33.7695 23.8613L33.7695 9.88965C33.7695 6.7168 33.4912 4.06348 31.5986 2.18945Z" fill="#000" fill-opacity="0.85"/>
  <path d="M16.5137 20.8555C15.5117 20.8555 14.9736 20.3359 14.9736 19.334C14.9736 19.2598 14.9736 19.167 14.9736 19.0928C14.9736 17.2002 15.9941 16.1982 17.3672 15.2334C19.0371 14.0645 19.8535 13.4336 19.8535 12.1348C19.8535 10.6875 18.7031 9.7041 16.9775 9.7041C15.7158 9.7041 14.7139 10.335 14.0273 11.4482L13.6934 11.9121C13.3408 12.3574 12.9326 12.6729 12.2832 12.6729C11.6338 12.6729 10.9473 12.209 10.9473 11.3555C10.9473 11.0215 11.0215 10.7061 11.1143 10.4092C11.6523 8.64648 13.8047 7.10645 17.1074 7.10645C20.373 7.10645 23.1934 8.79492 23.1934 11.9863C23.1934 14.2871 21.8574 15.4004 20.002 16.625C18.6846 17.4971 18.0537 18.1836 18.0537 19.2598C18.0537 19.3154 18.0537 19.4082 18.0537 19.4824C18.0537 20.2432 17.4785 20.8555 16.5137 20.8555ZM16.458 26.5518C15.3633 26.5518 14.3799 25.6611 14.3799 24.5664C14.3799 23.4717 15.3447 22.5625 16.458 22.5625C17.5898 22.5625 18.5361 23.4531 18.5361 24.5664C18.5361 25.6797 17.5713 26.5518 16.458 26.5518Z" fill="#fff"/>
 </g>
</svg>
