<?xml version="1.0" encoding="UTF-8"?>
<!--Generator: Apple Native CoreSVG 175.5-->
<!DOCTYPE svg
PUBLIC "-//W3C//DTD SVG 1.1//EN"
       "http://www.w3.org/Graphics/SVG/1.1/DTD/svg11.dtd">
<svg version="1.1" xmlns="http://www.w3.org/2000/svg" xmlns:xlink="http://www.w3.org/1999/xlink" width="39.2617" height="38.9092">
 <g>
  <rect height="38.9092" opacity="0" width="39.2617" x="0" y="0"/>
  <path d="M5.82617 30.3184L10.5205 30.3184L10.5205 27.3311L5.86328 27.3311C4.00781 27.3311 2.9873 26.3291 2.9873 24.3994L2.9873 5.95605C2.9873 4.02637 4.00781 3.02441 5.86328 3.02441L24.3994 3.02441C26.2363 3.02441 27.2754 4.02637 27.2754 5.95605L27.2754 10.0195L30.2627 10.0195L30.2627 5.78906C30.2627 1.9668 28.3145 0.0371094 24.4551 0.0371094L5.82617 0.0371094C1.92969 0.0371094 0 1.9668 0 5.78906L0 24.5664C0 28.3887 1.92969 30.3184 5.82617 30.3184Z" fill="#000" fill-opacity="0.85"/>
  <path d="M14.8252 38.9092L33.4541 38.9092C37.3135 38.9092 39.2617 36.9795 39.2617 33.1572L39.2617 14.3799C39.2617 10.5576 37.3135 8.62793 33.4541 8.62793L14.8252 8.62793C10.9287 8.62793 8.99902 10.5391 8.99902 14.3799L8.99902 33.1572C8.99902 36.9795 10.9287 38.9092 14.8252 38.9092ZM14.8623 35.9219C13.0254 35.9219 11.9863 34.9199 11.9863 32.9902L11.9863 14.5469C11.9863 12.6172 13.0254 11.6152 14.8623 11.6152L33.3984 11.6152C35.2354 11.6152 36.2744 12.6172 36.2744 14.5469L36.2744 32.9902C36.2744 34.9199 35.2354 35.9219 33.3984 35.9219ZM19.6865 31.8213L24.1582 28.5371L28.6299 31.8213C29.5391 32.4893 30.5039 31.7842 30.1514 30.7266L28.3701 25.4385L32.8975 22.21C33.7324 21.5977 33.4727 20.3916 32.3223 20.4102L26.7744 20.4473L25.0674 15.1406C24.752 14.1016 23.5645 14.1016 23.2305 15.1406L21.542 20.4473L15.9941 20.4102C14.8438 20.3916 14.5654 21.5977 15.4189 22.21L19.9277 25.4385L18.165 30.7266C17.8125 31.7842 18.7773 32.4893 19.6865 31.8213Z" fill="#000" fill-opacity="0.85"/>
 </g>
</svg>
